<?xml version="1.0" encoding="utf-8"?>
<!-- Generator: Adobe Illustrator 21.0.0, SVG Export Plug-In . SVG Version: 6.00 Build 0)  -->
<svg version="1.1" id="Layer_1" xmlns="http://www.w3.org/2000/svg" xmlns:xlink="http://www.w3.org/1999/xlink" x="0px" y="0px"
	 viewBox="0 0 1400 980" style="enable-background:new 0 0 1400 980;" xml:space="preserve">
<style type="text/css">
	.st0{fill:#B1DCD7;}
	.st1{opacity:0.59;fill:#95CEC6;}
	.st2{fill:#F2DA51;}
	.st3{fill:#989835;}
	.st4{fill:#173F42;}
	.st5{fill:#ED682D;}
	.st6{fill:#FFFFFF;}
	.st7{fill:#9D5023;}
	.st8{fill:#AFB536;}
	.st9{fill:#9A9B36;}
	.st10{fill:#D35422;}
	.st11{fill:#0B2526;}
	.st12{fill:#C9C64B;}
	.st13{opacity:0.77;}
	.st14{fill:none;}
	.st15{fill:#999929;}
	.st16{fill:#CCCD57;}
	.st17{clip-path:url(#SVGID_2_);}
	.st18{fill:#B7B33D;}
</style>
<rect class="st0" width="1400" height="980"/>
<path class="st1" d="M1400,980V501.8c-113-68.8-252.8-148.7-279.8-150.2c-48.1-2.7-312.4,165.2-378.4,180.2
	c-66,15-237-105-315.2-144.1C369.1,359,124.9,499.4,0,575.5V980H1400z"/>
<path class="st2" d="M741.8,531.8c28.4-6.5,93.6-41.2,162.4-78.5c-20.9-52.9-72.5-90.3-132.9-90.3c-77.2,0-140,61.2-142.7,137.7
	C674.5,523,716.1,537.7,741.8,531.8z"/>
<path class="st3" d="M98,687.1c1.4-1.8,2.3-4,2.3-6.5c0-4.7-3.1-8.7-7.4-10c0.3-1.6,0.5-3.3,0.5-5c0-12.4-9.6-22.6-21.7-23.7
	c-0.8-9.8-8.9-17.5-18.9-17.5c-4.2,0-8.1,1.4-11.2,3.7c-2.3-4.1-6.6-6.9-11.7-6.9c-1.6,0-3.2,0.3-4.6,0.8
	c-4.5-8.6-13.4-14.5-23.8-14.5c-0.5,0-1,0-1.5,0V753c7.2-5.1,12.9-12.2,16.3-20.5c8.5-0.1,16.4-3.3,22.4-8.4
	c5.2,13.1,18,22.5,33,22.5c19.6,0,35.5-15.9,35.5-35.5C107.2,701.8,103.8,693.4,98,687.1z"/>
<g>
	<polygon class="st4" points="1169.5,431.9 1101.9,728.1 1112.1,731.2 1179.7,435 	"/>
	<polygon class="st4" points="1206.3,431.9 1273.8,728.1 1263.6,731.2 1196.1,435 	"/>
	<path class="st5" d="M1178.7,399.2l-41-36.5c-7.5,9.3-12.5,20.8-13.8,33.3L1178.7,399.2z"/>
	<path class="st5" d="M1178.7,406.3l-54.8,3.2c1.3,12.6,6.3,24,13.8,33.3L1178.7,406.3z"/>
	<path class="st5" d="M1183.8,394.2l-3.2-54.8c-12.6,1.3-24,6.3-33.3,13.8L1183.8,394.2z"/>
	<path class="st5" d="M1194.1,339.3l-3.2,54.8l36.5-41C1218.1,345.6,1206.6,340.6,1194.1,339.3z"/>
	<path class="st5" d="M1183.8,411.4l-36.5,41c9.3,7.5,20.8,12.5,33.3,13.8L1183.8,411.4z"/>
	<path class="st5" d="M1196,399.2l54.8-3.2c-1.3-12.6-6.3-24-13.8-33.3L1196,399.2z"/>
	<path class="st5" d="M1196,406.3l41,36.5c7.5-9.3,12.5-20.8,13.8-33.3L1196,406.3z"/>
	<path class="st5" d="M1190.9,411.4l3.2,54.8c12.6-1.3,24-6.3,33.3-13.8L1190.9,411.4z"/>
	<path class="st4" d="M1176.2,391.6L1176.2,391.6c-3,3-4.6,7-4.6,11.2v0c0,4.2,1.7,8.2,4.6,11.2l0,0c3,3,7,4.6,11.2,4.6l0,0
		c4.2,0,8.2-1.7,11.2-4.6l0,0c3-3,4.6-7,4.6-11.2v0c0-4.2-1.7-8.2-4.6-11.2l0,0c-3-3-7-4.6-11.2-4.6h0
		C1183.1,387,1179.1,388.7,1176.2,391.6z"/>
	<path class="st6" d="M1182.8,398.2L1182.8,398.2c-1.2,1.2-1.9,2.8-1.9,4.5l0,0c0,1.7,0.7,3.3,1.9,4.5v0c1.2,1.2,2.8,1.9,4.5,1.9
		l0,0c1.7,0,3.3-0.7,4.5-1.9l0,0c1.2-1.2,1.9-2.8,1.9-4.5l0,0c0-1.7-0.7-3.3-1.9-4.5v0c-1.2-1.2-2.8-1.9-4.5-1.9l0,0
		C1185.6,396.4,1184,397,1182.8,398.2z"/>
	<rect x="1142.5" y="554.6" class="st4" width="87" height="8.2"/>
</g>
<g>
	<polygon class="st4" points="394.6,462.5 328.4,759 338.6,762.1 404.8,465.6 	"/>
	<polygon class="st4" points="431.4,462.3 500.3,758.2 490.1,761.4 421.2,465.5 	"/>
	<path class="st5" d="M403.7,429.8l-41.2-36.3c-7.5,9.3-12.4,20.8-13.7,33.4L403.7,429.8z"/>
	<path class="st5" d="M403.7,436.9l-54.8,3.4c1.4,12.5,6.4,24,14,33.3L403.7,436.9z"/>
	<path class="st5" d="M408.7,424.7l-3.4-54.8c-12.5,1.4-24,6.4-33.3,14L408.7,424.7z"/>
	<path class="st5" d="M418.8,369.8l-2.9,54.9l36.3-41.2C442.8,376,431.3,371.1,418.8,369.8z"/>
	<path class="st5" d="M408.8,441.9l-36.3,41.2c9.3,7.5,20.8,12.4,33.4,13.7L408.8,441.9z"/>
	<path class="st5" d="M420.9,429.7l54.8-3.4c-1.4-12.5-6.4-24-14-33.3L420.9,429.7z"/>
	<path class="st5" d="M420.9,436.8l41.2,36.3c7.5-9.3,12.4-20.8,13.7-33.4L420.9,436.8z"/>
	<path class="st5" d="M415.9,441.9l3.4,54.8c12.5-1.4,24-6.4,33.3-14L415.9,441.9z"/>
	<path class="st4" d="M401.1,422.2L401.1,422.2c-2.9,3-4.6,7-4.6,11.2v0c0,4.2,1.7,8.2,4.7,11.1l0,0c3,2.9,7,4.6,11.2,4.6h0
		c4.2,0,8.2-1.7,11.1-4.7l0,0c2.9-3,4.6-7,4.6-11.2v0c0-4.2-1.7-8.2-4.7-11.1l0,0c-3-2.9-7-4.6-11.2-4.6h0
		C408,417.5,404,419.2,401.1,422.2z"/>
	<path class="st6" d="M407.8,428.8L407.8,428.8c-1.2,1.2-1.9,2.8-1.9,4.5l0,0c0,1.7,0.7,3.3,1.9,4.5l0,0c1.2,1.2,2.8,1.9,4.5,1.9h0
		c1.7,0,3.3-0.7,4.5-1.9l0,0c1.2-1.2,1.9-2.8,1.9-4.5l0,0c0-1.7-0.7-3.3-1.9-4.5l0,0c-1.2-1.2-2.8-1.9-4.5-1.9h0
		C410.6,426.9,408.9,427.6,407.8,428.8z"/>
	
		<rect x="368.1" y="585.1" transform="matrix(1 -4.580573e-03 4.580573e-03 1 -2.6947 1.8917)" class="st4" width="87" height="8.2"/>
</g>
<path class="st3" d="M546.7,682.3c-6.7,0-13,1.3-18.9,3.5c0-0.2,0-0.3,0-0.5c0-17.3-14-31.3-31.3-31.3c-4,0-7.8,0.8-11.3,2.1
	c-4.2-5.2-9.9-9.1-16.5-11c-5-17.1-20.8-29.7-39.5-29.7c-19.5,0-35.9,13.6-40.1,31.9c-5.5-3.9-12.2-6.2-19.5-6.2
	c-18.7,0-33.9,15.2-33.9,33.9c0,2,0.2,4,0.5,5.9c-10.5,3.9-18.9,12.1-23,22.5c-20.1,5.6-34.9,24-34.9,45.9
	c0,26.3,21.3,47.6,47.6,47.6c21.6,0,39.9-14.5,45.7-34.2c11.2,11.6,26.9,18.8,44.3,18.8c12.3,0,23.7-3.6,33.4-9.8
	c8.3,5.3,18.1,8.5,28.7,8.5c11.3,0,21.9-3.6,30.5-9.6c9.5,10.1,23.1,16.5,38.1,16.5c28.9,0,52.3-23.4,52.3-52.3
	C599,705.8,575.6,682.3,546.7,682.3z"/>
<path class="st3" d="M905.8,651.1c1.4-1.8,2.3-4,2.3-6.5c0-4.7-3.1-8.7-7.4-10c0.3-1.6,0.5-3.3,0.5-5c0-12.4-9.6-22.6-21.7-23.7
	c-0.8-9.8-8.9-17.5-18.9-17.5c-4.2,0-8.1,1.4-11.2,3.7c-2.3-4.1-6.6-6.9-11.7-6.9c-1.6,0-3.2,0.3-4.6,0.8
	c-4.5-8.6-13.4-14.5-23.8-14.5c-2.1,0-4.1,0.2-6,0.7c-6.7-7.5-16.4-12.2-27.2-12.2c-13.2,0-24.8,7-31.2,17.5
	c-2.3-2.8-5.8-4.5-9.7-4.5c-6.8,0-12.3,5.2-12.8,11.9c-10,0.1-18.1,7.6-19.2,17.3c-11.3,4.4-19.7,14.7-21.3,27.1
	c-9.4,8.3-15.3,20.5-15.3,34c0,25.1,20.4,45.5,45.5,45.5c9.8,0,18.8-3.1,26.2-8.3c8,15,23.8,25.2,41.9,25.2
	c19.8,0,36.8-12.1,43.9-29.3c8.5-0.1,16.4-3.3,22.4-8.4c5.2,13.1,18,22.5,33,22.5c19.6,0,35.5-15.9,35.5-35.5
	C915,665.8,911.5,657.4,905.8,651.1z"/>
<g>
	<g>
		<rect x="575.9" y="620.3" class="st7" width="30.4" height="73"/>
		<path class="st8" d="M613.8,619.9c15.1,11.4,47.4,23,61.3,26.9c-41.8-34.5-70.4-86.7-83.6-107.8c-0.1-0.2-0.2-0.4-0.3-0.5
			c-0.1,0.2-0.2,0.3-0.3,0.5c-13.3,21.2-41.9,73.3-83.6,107.8c13.9-3.8,46.2-15.4,61.3-26.9c0,0-12,32-23.1,40
			c0,0,34.3-18.1,45.8-34.1c11.5,16.1,45.8,34.1,45.8,34.1C625.8,652,613.8,619.9,613.8,619.9z"/>
		<path class="st9" d="M611.7,592.7c13.7,10.4,43.1,21,55.7,24.4c-38-31.4-64-78.8-76.1-98.1c-0.1-0.2-0.2-0.3-0.3-0.5
			c-0.1,0.2-0.2,0.3-0.3,0.5c-12.1,19.2-38.1,66.7-76.1,98.1c12.6-3.5,42-14,55.7-24.4c0,0-10.6,18.8-20.7,26.1
			c0,0,30.9-6.1,41.4-20.7c10.5,14.6,39.9,22.8,39.9,22.8C620.9,613.6,611.7,592.7,611.7,592.7z"/>
		<path class="st8" d="M609.7,565.5c12.4,9.3,38.8,18.9,50.2,22c-34.2-28.2-57.6-71-68.5-88.3c-0.1-0.1-0.2-0.3-0.3-0.4
			c-0.1,0.1-0.2,0.3-0.3,0.4c-10.9,17.3-34.3,60.1-68.5,88.3c11.4-3.1,37.8-12.6,50.2-22c0,0-7.8,17.4-16.9,24c0,0,26.1-6,35.5-19.1
			c9.4,13.2,38.2,21.6,38.2,21.6C620.2,585.4,609.7,565.5,609.7,565.5z"/>
		<path class="st9" d="M607.6,538.3c11,8.3,34.5,16.8,44.6,19.6c-30.4-25.1-51.2-63.1-60.9-78.5c-0.1-0.1-0.2-0.3-0.2-0.4
			c-0.1,0.1-0.2,0.3-0.2,0.4c-9.7,15.4-30.5,53.4-60.9,78.5c10.1-2.8,33.6-11.2,44.6-19.6c0,0-8.2,17.2-16.3,23
			c0,0,24.5-7,32.9-18.7c8.4,11.7,33.8,21.3,33.8,21.3C616.8,558,607.6,538.3,607.6,538.3z"/>
		<path class="st8" d="M605.6,511.1c9.6,7.3,30.2,14.7,39.1,17.1c-26.6-22-44.9-55.2-53.3-68.7c-0.1-0.1-0.1-0.2-0.2-0.3
			c-0.1,0.1-0.1,0.2-0.2,0.3c-8.5,13.5-26.7,46.8-53.3,68.7c8.9-2.4,29.4-9.8,39.1-17.1c0,0-4.6,12.2-11.7,17.3
			c0,0,18.8-3.3,26.2-13.5c7.4,10.2,26.8,15,26.8,15C610.9,524.7,605.6,511.1,605.6,511.1z"/>
	</g>
</g>
<g>
	<g>
		<rect x="967.8" y="576.4" class="st7" width="30.4" height="73"/>
		<path class="st8" d="M1005.7,576.1c15.1,11.4,47.4,23,61.3,26.9c-41.8-34.5-70.4-86.7-83.6-107.8c-0.1-0.2-0.2-0.4-0.3-0.5
			c-0.1,0.2-0.2,0.3-0.3,0.5c-13.3,21.2-41.9,73.3-83.6,107.8c13.9-3.8,46.2-15.4,61.3-26.9c0,0-12,32-23.1,40
			c0,0,34.3-18.1,45.8-34.1c11.5,16.1,45.8,34.1,45.8,34.1C1017.7,608.1,1005.7,576.1,1005.7,576.1z"/>
		<path class="st9" d="M1003.6,548.9c13.7,10.4,43.1,21,55.7,24.4c-38-31.4-64-78.8-76.1-98.1c-0.1-0.2-0.2-0.3-0.3-0.5
			c-0.1,0.2-0.2,0.3-0.3,0.5c-12.1,19.2-38.1,66.7-76.1,98.1c12.6-3.5,42-14,55.7-24.4c0,0-10.6,18.8-20.7,26.1
			c0,0,30.9-6.1,41.4-20.7c10.5,14.6,39.9,22.8,39.9,22.8C1012.8,569.7,1003.6,548.9,1003.6,548.9z"/>
		<path class="st8" d="M1001.6,521.7c12.4,9.3,38.8,18.9,50.2,22c-34.2-28.2-57.6-71-68.5-88.3c-0.1-0.1-0.2-0.3-0.3-0.4
			c-0.1,0.1-0.2,0.3-0.3,0.4c-10.9,17.3-34.3,60.1-68.5,88.3c11.4-3.1,37.8-12.6,50.2-22c0,0-7.8,17.4-16.9,24c0,0,26.1-6,35.5-19.1
			c9.4,13.2,38.2,21.6,38.2,21.6C1012.1,541.5,1001.6,521.7,1001.6,521.7z"/>
		<path class="st9" d="M999.5,494.4c11,8.3,34.5,16.8,44.6,19.6c-30.4-25.1-51.2-63.1-60.9-78.5c-0.1-0.1-0.2-0.3-0.2-0.4
			c-0.1,0.1-0.2,0.3-0.2,0.4c-9.7,15.4-30.5,53.4-60.9,78.5c10.1-2.8,33.6-11.2,44.6-19.6c0,0-8.2,17.2-16.3,23
			c0,0,24.5-7,32.9-18.7c8.4,11.7,33.8,21.3,33.8,21.3C1008.7,514.2,999.5,494.4,999.5,494.4z"/>
		<path class="st8" d="M997.4,467.2c9.6,7.3,30.2,14.7,39.1,17.1c-26.6-22-44.9-55.2-53.3-68.7c-0.1-0.1-0.1-0.2-0.2-0.3
			c-0.1,0.1-0.1,0.2-0.2,0.3c-8.5,13.5-26.7,46.8-53.3,68.7c8.9-2.4,29.4-9.8,39.1-17.1c0,0-4.6,12.2-11.7,17.3
			c0,0,18.8-3.3,26.2-13.5c7.4,10.2,26.8,15,26.8,15C1002.7,480.8,997.4,467.2,997.4,467.2z"/>
	</g>
</g>
<path class="st3" d="M1346.2,659.2c-5.6,0-10.9,1.1-15.8,3c0-0.1,0-0.3,0-0.4c0-14.5-11.7-26.2-26.2-26.2c-3.3,0-6.5,0.6-9.5,1.8
	c-3.5-4.3-8.3-7.6-13.8-9.2c-4.2-14.4-17.4-24.9-33.1-24.9c-16.4,0-30.1,11.4-33.6,26.7c-4.6-3.3-10.3-5.2-16.3-5.2
	c-15.7,0-28.4,12.7-28.4,28.4c0,1.7,0.2,3.3,0.4,4.9c-8.8,3.2-15.9,10.1-19.3,18.9c-16.9,4.7-29.2,20.1-29.2,38.4
	c0,22,17.9,39.9,39.9,39.9c18.2,0,33.5-12.1,38.3-28.7c9.4,9.7,22.6,15.8,37.2,15.8c10.3,0,19.9-3,28-8.2c7,4.5,15.2,7.1,24.1,7.1
	c9.5,0,18.3-3,25.6-8.1c8,8.5,19.3,13.8,31.9,13.8c24.2,0,43.9-19.6,43.9-43.9S1370.4,659.2,1346.2,659.2z"/>
<g>
	<g>
		<polygon class="st10" points="49.6,556.6 49.6,690.3 239.1,690.3 239.1,547.8 152.1,521.9 		"/>
		<polygon class="st5" points="233.4,556 318.6,489.5 398.9,556 398.9,698.5 233.4,698.5 		"/>
		<polygon class="st4" points="218.2,564.8 323.8,477.8 426.5,567.7 406,567.7 323.5,495.5 239.5,564.8 		"/>
		<polygon class="st5" points="384.4,556.6 257.3,556.6 322.8,502.6 		"/>
		
			<rect x="285.3" y="601.7" transform="matrix(-1 -4.489310e-11 4.489310e-11 -1 655.2186 1307.8322)" class="st4" width="84.7" height="104.4"/>
		
			<rect x="360.1" y="601.7" transform="matrix(-1 -4.495128e-11 4.495128e-11 -1 730.0284 1307.8322)" class="st11" width="9.9" height="104.4"/>
		<polygon class="st4" points="312.3,572.5 342.9,572.5 342.9,546.1 327.7,531 312.3,546.1 		"/>
		<polygon class="st11" points="338.1,548.2 324.2,534.5 327.7,531 342.9,546.1 342.9,572.5 338.1,572.5 		"/>
		<polygon class="st4" points="27.4,564.8 113.3,478.5 323.8,477.8 222.8,564.8 		"/>
	</g>
	<rect x="64.8" y="582.2" class="st4" width="52.1" height="44.9"/>
	<rect x="148.3" y="582.2" class="st4" width="52.1" height="44.9"/>
	<rect x="109.1" y="582.2" class="st11" width="7.8" height="44.9"/>
	<rect x="192.6" y="582.2" class="st11" width="7.8" height="44.9"/>
</g>
<path class="st12" d="M1400,808.5V980H275c13.4-194.2,279.1-349.2,605-349.2C1100.9,630.8,1294.3,702.1,1400,808.5z"/>
<g>
	<path class="st8" d="M753.9,918.8c4.9,18.8,267.3,44,244.8,61.2H0V673.7C454,596.3,738.4,860.1,753.9,918.8z"/>
	<g class="st13">
		<path class="st14" d="M0,673.7v3.8c1.3-1.5,2.6-3,3.9-4.5C2.6,673.2,1.3,673.4,0,673.7z"/>
		<path class="st15" d="M3.9,673c-1.3,1.5-2.6,3-3.9,4.5v43.4c14.9-18.9,29.7-36.8,44.5-53.8C31.1,668.8,17.6,670.7,3.9,673z"/>
		<path class="st15" d="M87.1,662.7c-29,33.6-58.1,71-87.1,112.6v56.2c40.8-65.9,82.1-122.5,123.6-171
			C111.6,661,99.4,661.7,87.1,662.7z"/>
		<path class="st15" d="M162.2,659.6C107,725,52.6,805.7,0,904.6V980h1.7c61.2-134.4,126.6-239.1,193.9-319.8
			C184.6,659.8,173.5,659.6,162.2,659.6z"/>
		<path class="st15" d="M231.2,662.1C165.7,742,102.8,846.1,45.2,980h38.6c54.3-132.9,114.7-236.1,178.5-315
			C252.1,663.8,241.7,662.9,231.2,662.1z"/>
		<path class="st15" d="M295.6,669.3C234,747,176.5,848.8,126,980h37.5c47-129.1,101.9-229.4,161.2-305.9
			C315.1,672.4,305.4,670.7,295.6,669.3z"/>
		<path class="st15" d="M356.2,680.5c-56.8,75-108.5,173.3-151.7,299.5h36.4c39.8-123.2,88.5-219.3,142.9-292.8
			C374.7,684.8,365.5,682.6,356.2,680.5z"/>
		<path class="st15" d="M413.8,695.5c-51.5,71.7-96.9,165.2-133,284.5h35.5c32.8-115.3,75.2-206.2,124-276.2
			C431.6,700.9,422.8,698.1,413.8,695.5z"/>
		<path class="st15" d="M469,714c-45.6,67.9-84.5,155.5-113.9,266h34.6C416,874.3,452,789.9,494.5,724.1
			C486.2,720.6,477.7,717.3,469,714z"/>
		<path class="st15" d="M522.4,736.2C483.2,799.5,450.8,880,427.6,980h33.7c20.5-94.4,49.9-171.1,85.9-231.9
			C539.1,744,530.9,740.1,522.4,736.2z"/>
		<path class="st15" d="M574.3,762.3c-32.3,57.9-58.3,130-76,217.7h32.9c15.3-81.3,38.3-148.8,67.2-203.8
			C590.7,771.5,582.6,766.9,574.3,762.3z"/>
		<path class="st15" d="M625.1,792.9c-25.1,51.3-44.8,113.4-57.6,187.1h32.2c10.8-66.3,27.6-123,49.2-170.7
			C641.3,803.9,633.4,798.4,625.1,792.9z"/>
		<path class="st15" d="M675,829.3c-17.6,43-31.2,93.1-39.9,150.7h31.6c7-49.1,17.8-92.5,31.7-130.6
			C691.3,842.9,683.5,836.2,675,829.3z"/>
	</g>
</g>
<g>
	<g>
		<rect x="1365.9" y="619.7" class="st7" width="28.6" height="65.3"/>
		<path class="st8" d="M1400,574.6c-8.4-12.9-14.9-24.2-19.5-31.5c-0.1-0.2-0.2-0.3-0.3-0.5c-0.1,0.2-0.2,0.3-0.3,0.5
			c-12.5,19.9-39.4,69-78.7,101.5c13.1-3.6,43.5-14.5,57.7-25.3c0,0-11.3,30.1-21.8,37.7c0,0,32.3-17,43.1-32.1
			c4.3,6,12.1,12.4,19.8,17.8V574.6z"/>
		<path class="st9" d="M1400,594.6c-0.3-0.5-0.4-0.8-0.4-0.8c0.1,0.1,0.3,0.2,0.4,0.3v-38.2c-8.5-12.9-15-24.2-19.5-31.4
			c-0.1-0.1-0.2-0.3-0.3-0.4c-0.1,0.1-0.2,0.3-0.3,0.4c-11.4,18.1-35.8,62.8-71.6,92.3c11.9-3.3,39.5-13.2,52.4-23
			c0,0-10,17.7-19.5,24.5c0,0,29.1-5.7,38.9-19.5c4.4,6.1,12.3,11,19.8,14.6V594.6z"/>
		<path class="st8" d="M1400,572.2c-1.4-2.5-2.3-4.1-2.3-4.1c0.7,0.5,1.5,1.1,2.3,1.6V537c-8.6-12.8-15.2-24.2-19.5-31.2
			c-0.1-0.1-0.2-0.3-0.3-0.4c-0.1,0.1-0.2,0.3-0.3,0.4c-10.2,16.3-32.2,56.5-64.5,83.1c10.7-2.9,35.6-11.9,47.2-20.7
			c0,0-7.4,16.4-15.9,22.5c0,0,24.5-5.6,33.4-18c4.2,5.8,12.3,10.6,19.8,14.1V572.2z"/>
		<path class="st9" d="M1400,550.7c-2.6-4.5-4.3-8.2-4.3-8.2c1.3,1,2.7,1.9,4.3,2.8V518c-8.7-12.7-15.3-24.2-19.6-31
			c-0.1-0.1-0.2-0.2-0.2-0.4c-0.1,0.1-0.2,0.2-0.2,0.4c-9.1,14.5-28.7,50.3-57.3,73.9c9.5-2.6,31.7-10.6,42-18.4
			c0,0-7.8,16.1-15.4,21.6c0,0,23-6.6,30.9-17.6c4.1,5.8,12.6,11,19.8,14.6V550.7z"/>
		<path class="st8" d="M1400,528.6c-3.7-5.4-6.2-11.7-6.2-11.7c1.7,1.3,3.8,2.6,6.2,3.9V499c-8.9-12.5-15.5-24.1-19.6-30.7
			c-0.1-0.1-0.1-0.2-0.2-0.3c-0.1,0.1-0.1,0.2-0.2,0.3c-8,12.7-25.1,44-50.2,64.7c8.3-2.3,27.7-9.3,36.8-16.1c0,0-4.4,11.5-11,16.3
			c0,0,17.7-3.1,24.7-12.7c4.5,6.3,13.8,10.3,19.8,12.4V528.6z"/>
	</g>
</g>
<path class="st6" d="M1400,161.8c-8.6-12.5-23-20.6-39.3-20.6c-11.7,0-22.5,4.2-30.8,11.3c-3.7-0.8-7.5-1.2-11.5-1.2
	c-0.6,0-1.2,0-1.8,0c-7.4-10-19.3-16.5-32.7-16.5c-18.5,0-34.1,12.3-39.1,29.2c-15.6,2-28.2,13.3-32.3,28.1H1400V161.8z"/>
<path class="st6" d="M402.6,309.3c-3.6-20.7-19-36.3-37.6-36.3c-7.6,0-14.7,2.6-20.7,7.2c-11.4-10.4-25.6-16.5-41-16.5
	c-2.8,0-5.5,0.2-8.2,0.6c-12.1-13.6-28.4-21.9-46.3-21.9c-23.8,0-44.7,14.6-56.7,36.7c-0.2,0-0.5,0-0.7,0c-16.1,0-29.7,12.8-34,30.3
	H402.6z"/>
<path class="st6" d="M1037,292.8c-2.3-19.2-18.6-34-38.4-34c-3.4,0-6.6,0.4-9.7,1.2c-4.5-18.1-20.8-31.5-40.3-31.5
	c-18.4,0-34,12-39.5,28.5c-4.5-3.1-9.9-4.9-15.8-4.9c-14.7,0-26.7,11.3-27.8,25.7c-10.3-0.2-20,5.6-24.7,14.9H1037z"/>
<path class="st6" d="M0,219.4h102c-3-24.9-24.3-44.2-50-44.2c-4.4,0-8.6,0.6-12.7,1.6c-4.8-19.3-20-34.5-39.3-39.3V219.4z"/>
<g>
	<path class="st16" d="M1400,685.2V980H581c92.9-135.2,334.3-250.7,627.3-285C1274.2,687.3,1338.5,684.1,1400,685.2z"/>
	<path class="st16" d="M1400,685.2V980H581c92.9-135.2,334.3-250.7,627.3-285C1274.2,687.3,1338.5,684.1,1400,685.2z"/>
	<g>
		<defs>
			<path id="SVGID_1_" d="M1400,685.2V980H581c92.9-135.2,334.3-250.7,627.3-285C1274.2,687.3,1338.5,684.1,1400,685.2z"/>
		</defs>
		<clipPath id="SVGID_2_">
			<use xlink:href="#SVGID_1_"  style="overflow:visible;"/>
		</clipPath>
		<g class="st17">
			<path class="st18" d="M3476.9,3798.2c175.9,92,363.2,190,563.1,294.6C2023.3,1184.8,1479.8,742.4,1156.9,616.5
				c-9.3,4.1-18.7,8.2-28.2,12.3C1434.3,757.1,1923.8,1195.9,3476.9,3798.2z"/>
			<path class="st18" d="M2614.1,3346.8c125,65.4,256.8,134.3,396,207.2C1826.6,1206.8,1388.5,771.9,1100,641.3
				c-9.8,4.2-19.6,8.5-29.5,12.8C1342,787,1730.8,1217.5,2614.1,3346.8z"/>
			<path class="st18" d="M1982.7,3016.5c93.4,48.9,191.1,100,293.6,153.6c-639-1942.2-981.2-2368-1235.9-2502.9
				c-10.2,4.4-20.5,8.9-30.8,13.4C1247.6,817.5,1545.2,1238.2,1982.7,3016.5z"/>
			<path class="st18" d="M1500.7,2764.3c72.4,37.9,147.8,77.3,226.3,118.4C1455.1,1248.2,1199.7,833,978.1,694.4
				c-10.7,4.7-21.5,9.3-32.3,14.1C1151,848.7,1366.4,1258.1,1500.7,2764.3z"/>
			<path class="st18" d="M1120.6,2565.5c57.8,30.2,117.7,61.6,179.8,94.1c-20.8-1391.8-198.4-1795-387.6-1936.8
				c-11.2,4.9-22.5,9.8-33.9,14.8C1052.3,880.6,1194,1277.3,1120.6,2565.5z"/>
			<path class="st18" d="M813.3,2404.7c47.2,24.7,95.9,50.2,146.3,76.5c150.9-1194.5,42.6-1584.4-115.1-1728.6
				c-11.8,5.1-23.6,10.3-35.6,15.5C951.2,913.3,1027.9,1295.9,813.3,2404.7z"/>
			<path class="st18" d="M559.5,2272c39.2,20.5,79.7,41.7,121.3,63.5c266.3-1030.5,219-1405.5,91.6-1551.5
				c-12.4,5.4-24.8,10.8-37.4,16.3C847.8,946.7,867.5,1313.8,559.5,2272z"/>
			<path class="st18" d="M346.6,2160.5c33.2,17.3,67.2,35.2,102.2,53.5c340.8-891.6,346.4-1250.3,248-1397.2
				c-13,5.7-26.1,11.4-39.4,17.1C741.8,981,712.7,1331,346.6,2160.5z"/>
		</g>
	</g>
</g>
<path class="st4" d="M994.5,350.4c-1-1.5-2.1-2.9-3.3-4.3c-2.5-2.7-5.5-5-9.1-6.5c-0.5-0.2-0.9-0.4-1.4-0.5l-1.4-0.4
	c-0.5-0.1-1-0.2-1.5-0.3c-0.5-0.1-1-0.1-1.5-0.2c-2-0.2-4.1-0.1-6,0.3c-0.3,0-0.5,0.1-0.7,0.2l-0.7,0.2c-0.5,0.1-1,0.3-1.4,0.5
	c-0.5,0.2-0.9,0.3-1.4,0.5c-0.5,0.2-0.9,0.4-1.3,0.6c-0.4,0.2-0.9,0.4-1.3,0.7l-1.3,0.7l-0.3,0.2l0,0l0,0l-0.3-0.2
	c-0.8-0.5-1.6-1-2.5-1.4c-0.4-0.2-0.9-0.4-1.3-0.6l-1.4-0.5c-0.5-0.2-0.9-0.3-1.4-0.5c-0.5-0.1-1-0.3-1.5-0.4l-1.5-0.3
	c-0.5-0.1-1-0.1-1.5-0.1c-0.5-0.1-1,0-1.5,0c-0.5,0-1,0-1.5,0.1c-0.5,0.1-1,0.1-1.5,0.2c-0.5,0.1-1,0.2-1.5,0.3l-1.4,0.4
	c-0.5,0.1-0.9,0.3-1.4,0.5c-3.6,1.5-6.7,3.8-9.1,6.5c-1.2,1.3-2.4,2.8-3.3,4.3c-1,1.5-1.9,3.1-2.5,4.7c2.5-2.5,5.2-4.7,8-6.5
	c2.8-1.8,5.7-3.3,8.7-4c3-0.8,5.9-0.7,8.7,0.1c2.8,0.8,5.4,2.3,7.9,4.2l2,1.6l2-1.6c2.5-1.9,5.1-3.4,7.9-4.2
	c2.8-0.8,5.7-0.8,8.7-0.1c3,0.7,5.9,2.2,8.7,4c2.8,1.8,5.4,4,8,6.5C996.3,353.5,995.5,351.9,994.5,350.4z"/>
<path class="st4" d="M825.5,199c-1-1.5-2.1-2.9-3.3-4.3c-2.5-2.7-5.5-5-9.1-6.5c-0.5-0.2-0.9-0.4-1.4-0.5l-1.4-0.4
	c-0.5-0.1-1-0.2-1.5-0.3c-0.5-0.1-1-0.1-1.5-0.2c-2-0.2-4.1-0.1-6,0.3c-0.3,0-0.5,0.1-0.7,0.2l-0.7,0.2c-0.5,0.1-1,0.3-1.4,0.5
	c-0.5,0.2-0.9,0.3-1.4,0.5c-0.5,0.2-0.9,0.4-1.3,0.6c-0.4,0.2-0.9,0.4-1.3,0.7l-1.3,0.7l-0.3,0.2l0,0l0,0l-0.3-0.2
	c-0.8-0.5-1.6-1-2.5-1.4c-0.4-0.2-0.9-0.4-1.3-0.6l-1.4-0.5c-0.5-0.2-0.9-0.3-1.4-0.5c-0.5-0.1-1-0.3-1.5-0.4l-1.5-0.3
	c-0.5-0.1-1-0.1-1.5-0.1c-0.5-0.1-1,0-1.5,0c-0.5,0-1,0-1.5,0.1c-0.5,0.1-1,0.1-1.5,0.2c-0.5,0.1-1,0.2-1.5,0.3l-1.4,0.4
	c-0.5,0.1-0.9,0.3-1.4,0.5c-3.6,1.5-6.7,3.8-9.1,6.5c-1.2,1.3-2.4,2.8-3.3,4.3c-1,1.5-1.9,3.1-2.5,4.7c2.5-2.5,5.2-4.7,8-6.5
	c2.8-1.8,5.7-3.3,8.7-4c3-0.8,5.9-0.7,8.7,0.1c2.8,0.8,5.4,2.3,7.9,4.2l2,1.6l2-1.6c2.5-1.9,5.1-3.4,7.9-4.2
	c2.8-0.8,5.7-0.8,8.7-0.1c3,0.7,5.9,2.2,8.7,4c2.8,1.8,5.4,4,8,6.5C827.3,202.1,826.5,200.5,825.5,199z"/>
<path class="st4" d="M579.2,353.4c-1-1.5-2.1-2.9-3.3-4.3c-2.5-2.7-5.5-5-9.1-6.5c-0.5-0.2-0.9-0.4-1.4-0.5l-1.4-0.4
	c-0.5-0.1-1-0.2-1.5-0.3c-0.5-0.1-1-0.1-1.5-0.2c-2-0.2-4.1-0.1-6,0.3c-0.3,0-0.5,0.1-0.7,0.2l-0.7,0.2c-0.5,0.1-1,0.3-1.4,0.5
	c-0.5,0.2-0.9,0.3-1.4,0.5c-0.5,0.2-0.9,0.4-1.3,0.6c-0.4,0.2-0.9,0.4-1.3,0.7l-1.3,0.7l-0.3,0.2l0,0l0,0l-0.3-0.2
	c-0.8-0.5-1.6-1-2.5-1.4c-0.4-0.2-0.9-0.4-1.3-0.6l-1.4-0.5c-0.5-0.2-0.9-0.3-1.4-0.5c-0.5-0.1-1-0.3-1.5-0.4l-1.5-0.3
	c-0.5-0.1-1-0.1-1.5-0.1c-0.5-0.1-1,0-1.5,0c-0.5,0-1,0-1.5,0.1c-0.5,0.1-1,0.1-1.5,0.2c-0.5,0.1-1,0.2-1.5,0.3l-1.4,0.4
	c-0.5,0.1-0.9,0.3-1.4,0.5c-3.6,1.5-6.7,3.8-9.1,6.5c-1.2,1.3-2.4,2.8-3.3,4.3c-1,1.5-1.9,3.1-2.5,4.7c2.5-2.5,5.2-4.7,8-6.5
	c2.8-1.8,5.7-3.3,8.7-4c3-0.8,5.9-0.7,8.7,0.1c2.8,0.8,5.4,2.3,7.9,4.2l2,1.6l2-1.6c2.5-1.9,5.1-3.4,7.9-4.2
	c2.8-0.8,5.7-0.8,8.7-0.1c3,0.7,5.9,2.2,8.7,4c2.8,1.8,5.4,4,8,6.5C581.1,356.4,580.2,354.9,579.2,353.4z"/>
<path class="st4" d="M86.5,436.1c-0.6-1-1.4-1.9-2.2-2.8c-1.6-1.7-3.6-3.2-6-4.2c-0.3-0.1-0.6-0.2-0.9-0.3l-0.9-0.3
	c-0.3-0.1-0.6-0.1-1-0.2c-0.3-0.1-0.6-0.1-1-0.1c-1.3-0.1-2.6-0.1-3.9,0.2c-0.2,0-0.3,0.1-0.5,0.1l-0.5,0.1
	c-0.3,0.1-0.6,0.2-0.9,0.3c-0.3,0.1-0.6,0.2-0.9,0.3c-0.3,0.1-0.6,0.3-0.9,0.4c-0.3,0.1-0.6,0.3-0.8,0.4l-0.8,0.5l-0.2,0.1l0,0l0,0
	l-0.2-0.1c-0.6-0.3-1.1-0.7-1.7-0.9c-0.3-0.1-0.6-0.3-0.9-0.4l-0.9-0.3c-0.3-0.1-0.6-0.2-0.9-0.3c-0.3-0.1-0.6-0.2-1-0.2l-1-0.2
	c-0.3,0-0.7-0.1-1-0.1c-0.3,0-0.7,0-1,0c-0.3,0-0.7,0-1,0.1c-0.3,0-0.7,0.1-1,0.1c-0.3,0.1-0.6,0.1-1,0.2l-0.9,0.3
	c-0.3,0.1-0.6,0.2-0.9,0.3c-2.4,1-4.4,2.5-6,4.2c-0.8,0.9-1.5,1.8-2.2,2.8c-0.6,1-1.2,2-1.6,3.1c1.7-1.6,3.4-3,5.2-4.2
	c1.8-1.2,3.7-2.1,5.7-2.6c1.9-0.5,3.9-0.4,5.7,0.1c1.8,0.5,3.6,1.5,5.2,2.7l1.3,1l1.3-1c1.6-1.2,3.3-2.2,5.2-2.7
	c1.8-0.5,3.8-0.6,5.7-0.1c1.9,0.5,3.9,1.4,5.7,2.6c1.8,1.2,3.5,2.6,5.2,4.2C87.7,438,87.1,437,86.5,436.1z"/>
<path class="st4" d="M130.4,152.2c-0.6-0.9-1.2-1.7-1.9-2.4c-1.4-1.5-3.2-2.9-5.3-3.7c-0.3-0.1-0.5-0.2-0.8-0.3l-0.8-0.2
	c-0.3-0.1-0.6-0.1-0.8-0.2c-0.3-0.1-0.6-0.1-0.9-0.1c-1.1-0.1-2.3-0.1-3.5,0.2c-0.1,0-0.3,0.1-0.4,0.1l-0.4,0.1
	c-0.3,0.1-0.6,0.2-0.8,0.3c-0.3,0.1-0.5,0.2-0.8,0.3c-0.3,0.1-0.5,0.2-0.8,0.4c-0.3,0.1-0.5,0.2-0.7,0.4l-0.7,0.4l-0.2,0.1l0,0l0,0
	l-0.2-0.1c-0.5-0.3-0.9-0.6-1.5-0.8c-0.3-0.1-0.5-0.2-0.8-0.4l-0.8-0.3c-0.3-0.1-0.5-0.2-0.8-0.3c-0.3-0.1-0.6-0.2-0.8-0.2l-0.9-0.1
	c-0.3,0-0.6-0.1-0.9-0.1c-0.3,0-0.6,0-0.9,0c-0.3,0-0.6,0-0.9,0.1c-0.3,0-0.6,0.1-0.9,0.1c-0.3,0.1-0.6,0.1-0.8,0.2l-0.8,0.2
	c-0.3,0.1-0.5,0.2-0.8,0.3c-2.1,0.9-3.8,2.2-5.3,3.7c-0.7,0.8-1.4,1.6-1.9,2.4c-0.6,0.9-1.1,1.8-1.4,2.7c1.5-1.4,3-2.7,4.6-3.7
	c1.6-1.1,3.3-1.9,5-2.3c1.7-0.4,3.4-0.4,5,0c1.6,0.5,3.1,1.3,4.5,2.4l1.2,0.9l1.2-0.9c1.4-1.1,2.9-2,4.5-2.4c1.6-0.4,3.3-0.5,5,0
	c1.7,0.4,3.4,1.2,5,2.3c1.6,1.1,3.1,2.3,4.6,3.7C131.5,154,131,153.1,130.4,152.2z"/>
<path class="st4" d="M1326.2,303.9c-1-1.5-2.1-2.9-3.3-4.3c-2.5-2.7-5.5-5-9.1-6.5c-0.5-0.2-0.9-0.4-1.4-0.5l-1.4-0.4
	c-0.5-0.1-1-0.2-1.5-0.3c-0.5-0.1-1-0.1-1.5-0.2c-2-0.2-4.1-0.1-6,0.3c-0.3,0-0.5,0.1-0.7,0.2l-0.7,0.2c-0.5,0.1-1,0.3-1.4,0.5
	c-0.5,0.2-0.9,0.3-1.4,0.5c-0.5,0.2-0.9,0.4-1.3,0.6c-0.4,0.2-0.9,0.4-1.3,0.7l-1.3,0.7l-0.3,0.2l0,0l0,0l-0.3-0.2
	c-0.8-0.5-1.6-1-2.5-1.4c-0.4-0.2-0.9-0.4-1.3-0.6l-1.4-0.5c-0.5-0.2-0.9-0.3-1.4-0.5c-0.5-0.1-1-0.3-1.5-0.4l-1.5-0.3
	c-0.5-0.1-1-0.1-1.5-0.1c-0.5-0.1-1,0-1.5,0c-0.5,0-1,0-1.5,0.1c-0.5,0.1-1,0.1-1.5,0.2c-0.5,0.1-1,0.2-1.5,0.3l-1.4,0.4
	c-0.5,0.1-0.9,0.3-1.4,0.5c-3.6,1.5-6.7,3.8-9.1,6.5c-1.2,1.3-2.4,2.8-3.3,4.3c-1,1.5-1.9,3.1-2.5,4.7c2.5-2.5,5.2-4.7,8-6.5
	c2.8-1.8,5.7-3.3,8.7-4c3-0.8,5.9-0.7,8.7,0.1c2.8,0.8,5.4,2.3,7.9,4.2l2,1.6l2-1.6c2.5-1.9,5.1-3.4,7.9-4.2
	c2.8-0.8,5.7-0.8,8.7-0.1c3,0.7,5.9,2.2,8.7,4c2.8,1.8,5.4,4,8,6.5C1328,306.9,1327.2,305.4,1326.2,303.9z"/>
<path class="st4" d="M1375.9,417c-0.8-1.2-1.7-2.3-2.6-3.3c-2-2.1-4.3-3.9-7.2-5.1c-0.4-0.1-0.7-0.3-1.1-0.4l-1.1-0.3
	c-0.4-0.1-0.8-0.2-1.2-0.2c-0.4-0.1-0.8-0.1-1.2-0.2c-1.6-0.1-3.2-0.1-4.7,0.3c-0.2,0-0.4,0.1-0.6,0.1l-0.6,0.2
	c-0.4,0.1-0.8,0.2-1.1,0.4c-0.4,0.1-0.7,0.3-1.1,0.4c-0.4,0.2-0.7,0.3-1,0.5c-0.3,0.2-0.7,0.3-1,0.5l-1,0.6l-0.2,0.1l0,0l0,0
	l-0.2-0.1c-0.7-0.4-1.3-0.8-2-1.1c-0.3-0.2-0.7-0.3-1-0.5l-1.1-0.4c-0.4-0.1-0.7-0.3-1.1-0.4c-0.4-0.1-0.8-0.2-1.2-0.3l-1.2-0.2
	c-0.4-0.1-0.8-0.1-1.2-0.1c-0.4,0-0.8,0-1.2,0c-0.4,0-0.8,0-1.2,0.1c-0.4,0.1-0.8,0.1-1.2,0.2c-0.4,0.1-0.8,0.2-1.2,0.2l-1.1,0.3
	c-0.4,0.1-0.7,0.3-1.1,0.4c-2.8,1.2-5.2,3-7.2,5.1c-1,1.1-1.9,2.2-2.6,3.3c-0.8,1.2-1.5,2.4-2,3.7c2-1.9,4.1-3.7,6.3-5.1
	c2.2-1.4,4.5-2.6,6.8-3.1c2.3-0.6,4.6-0.5,6.8,0.1c2.2,0.6,4.3,1.8,6.2,3.3l1.6,1.2l1.6-1.2c1.9-1.5,4-2.7,6.2-3.3
	c2.2-0.6,4.5-0.7,6.8-0.1c2.3,0.6,4.6,1.7,6.8,3.1c2.2,1.4,4.3,3.2,6.3,5.1C1377.4,419.4,1376.7,418.2,1375.9,417z"/>
<path class="st4" d="M233.9,380.5c-1-1.5-2.1-2.9-3.3-4.3c-2.5-2.7-5.5-5-9.1-6.5c-0.5-0.2-0.9-0.4-1.4-0.5l-1.4-0.4
	c-0.5-0.1-1-0.2-1.5-0.3c-0.5-0.1-1-0.1-1.5-0.2c-2-0.2-4.1-0.1-6,0.3c-0.3,0-0.5,0.1-0.7,0.2l-0.7,0.2c-0.5,0.1-1,0.3-1.4,0.5
	c-0.5,0.2-0.9,0.3-1.4,0.5c-0.5,0.2-0.9,0.4-1.3,0.6c-0.4,0.2-0.9,0.4-1.3,0.7l-1.3,0.7l-0.3,0.2l0,0l0,0l-0.3-0.2
	c-0.8-0.5-1.6-1-2.5-1.4c-0.4-0.2-0.9-0.4-1.3-0.6l-1.4-0.5c-0.5-0.2-0.9-0.3-1.4-0.5c-0.5-0.1-1-0.3-1.5-0.4l-1.5-0.3
	c-0.5-0.1-1-0.1-1.5-0.1c-0.5-0.1-1,0-1.5,0c-0.5,0-1,0-1.5,0.1c-0.5,0.1-1,0.1-1.5,0.2c-0.5,0.1-1,0.2-1.5,0.3l-1.4,0.4
	c-0.5,0.1-0.9,0.3-1.4,0.5c-3.6,1.5-6.7,3.8-9.1,6.5c-1.2,1.3-2.4,2.8-3.3,4.3c-1,1.5-1.9,3.1-2.5,4.7c2.5-2.5,5.2-4.7,8-6.5
	c2.8-1.8,5.7-3.3,8.7-4c3-0.8,5.9-0.7,8.7,0.1c2.8,0.8,5.4,2.3,7.9,4.2l2,1.6l2-1.6c2.5-1.9,5.1-3.4,7.9-4.2
	c2.8-0.8,5.7-0.8,8.7-0.1c3,0.7,5.9,2.2,8.7,4c2.8,1.8,5.4,4,8,6.5C235.7,383.6,234.8,382,233.9,380.5z"/>
</svg>
